# xmcd CD database file
#
# Track frame offsets:
#	150
#	26252
#	48600
#	69075
#	92050
#	110320
#	133975
#	162907
#	193000
#
# Disc length: 2954 seconds
#
# Revision: 0
# Processed by: cddbd v1.4PL0 Copyright (c) Steve Scherf et al.
# Submitted via: CDex 1.50Beta5
#
DISCID=730b8809
DTITLE=Joe Pass Quartet - Live at Yoshi's, Vol. 2
DYEAR=1900
DGENRE=Jazz
TTITLE0=I Remember You
TTITLE1=Repetition
TTITLE2=September Song
TTITLE3=Nuages
TTITLE4=If I had You
TTITLE5=Love Letters
TTITLE6=What is this thing called Love
TTITLE7=Blues for the Weasel
TTITLE8=Cherokee
EXTD=
EXTT0=
EXTT1=
EXTT2=
EXTT3=
EXTT4=
EXTT5=
EXTT6=
EXTT7=
EXTT8=
PLAYORDER=
